<?xml version="1.0" standalone="no"?>
<!DOCTYPE svg PUBLIC "-//W3C//DTD SVG 20010904//EN"
 "http://www.w3.org/TR/2001/REC-SVG-20010904/DTD/svg10.dtd">
<svg version="1.0" xmlns="http://www.w3.org/2000/svg"
 width="500.000000pt" height="500.000000pt" viewBox="0 0 500.000000 500.000000"
 preserveAspectRatio="xMidYMid meet">

<g transform="translate(0.000000,500.000000) scale(0.100000,-0.100000)"
fill="#000000" stroke="none">
<path d="M0 2500 l0 -2500 2500 0 2500 0 0 2500 0 2500 -2500 0 -2500 0 0
-2500z m1080 807 l5 -148 63 76 64 75 54 0 c30 0 54 -3 54 -6 0 -4 -29 -40
-65 -80 l-66 -73 24 -38 c13 -21 47 -75 76 -121 l52 -83 -62 3 -62 3 -45 75
c-54 93 -57 96 -77 80 -11 -9 -15 -32 -15 -86 l0 -74 -55 0 -55 0 0 276 0 275
53 -3 52 -3 5 -148z m1040 1 l1 -153 26 30 c14 17 45 52 68 78 42 48 42 48 99
45 l57 -3 -66 -72 c-36 -39 -65 -77 -65 -83 0 -7 28 -58 63 -114 35 -55 67
-107 71 -113 5 -10 -7 -13 -52 -13 l-60 0 -47 80 c-53 90 -60 97 -80 80 -11
-9 -15 -34 -15 -86 l0 -74 -55 0 -55 0 0 275 0 275 55 0 55 0 0 -152z m-1323
-10 c15 -7 38 -28 50 -47 21 -30 23 -46 23 -145 0 -116 6 -136 43 -136 14 0
18 -6 15 -27 -6 -57 -130 -54 -144 4 l-7 24 -26 -24 c-56 -52 -121 -62 -179
-27 -40 24 -55 61 -49 118 8 77 62 112 172 112 63 0 65 1 65 26 0 44 -17 64
-56 64 -27 0 -37 -5 -46 -25 -10 -22 -17 -25 -65 -25 -46 0 -53 3 -53 20 0 29
49 79 95 96 45 16 120 12 162 -8z m1014 12 c19 -5 48 -24 65 -41 28 -29 29
-34 34 -152 3 -67 9 -128 13 -134 5 -7 17 -13 28 -13 29 0 27 -56 -3 -64 -59
-15 -128 12 -128 51 0 12 -7 9 -25 -11 -65 -70 -188 -59 -221 19 -19 47 -18
84 6 123 26 43 74 62 155 62 l65 0 0 33 c0 42 -15 57 -57 57 -27 0 -35 -5 -43
-25 -9 -23 -15 -25 -65 -25 -62 0 -66 7 -35 57 36 60 126 87 211 63z m841 0
c47 -13 92 -51 108 -90 7 -17 11 -32 9 -34 -2 -2 -27 -7 -55 -11 -50 -6 -52
-6 -58 20 -15 58 -97 58 -122 0 -21 -51 -18 -143 6 -182 32 -54 101 -42 123
20 5 13 18 17 56 17 27 0 52 -4 55 -8 3 -5 -4 -27 -15 -50 -22 -45 -67 -78
-118 -88 -37 -8 -39 -16 -9 -29 30 -14 42 -38 34 -69 -8 -32 -56 -56 -111 -56
-31 0 -35 3 -35 25 0 21 5 25 29 25 29 0 57 21 44 33 -3 4 -17 7 -31 7 -22 0
-24 3 -19 29 6 27 2 31 -41 53 -79 39 -115 133 -92 244 24 114 127 175 242
144z m447 -15 c41 -21 70 -65 83 -128 18 -86 17 -87 -122 -87 -115 0 -120 -1
-120 -21 0 -23 18 -60 34 -71 6 -4 28 -8 48 -8 27 0 40 5 48 21 9 16 19 20 57
17 27 -2 48 -9 51 -16 2 -7 -14 -30 -35 -51 -85 -85 -245 -62 -300 43 -25 45
-24 179 1 229 42 86 163 120 255 72z m1086 -824 c164 -41 255 -88 295 -154 75
-122 -62 -243 -335 -298 -44 -9 -135 -14 -245 -14 -110 0 -201 5 -245 14 -220
44 -355 132 -355 231 0 109 153 200 408 240 99 15 386 4 477 -19z m-848 -403
c102 -114 384 -179 676 -157 242 18 448 106 476 203 7 23 9 2 10 -85 1 -105
-1 -119 -22 -150 -72 -108 -305 -179 -582 -179 -274 1 -500 72 -572 179 -21
31 -23 45 -22 150 0 81 3 107 9 87 5 -15 17 -37 27 -48z m1145 -471 c-62 -108
-305 -187 -572 -187 l-126 0 -12 34 c-35 95 -206 194 -398 229 l-69 13 -2 80
c-1 58 1 71 7 50 25 -81 153 -151 349 -191 113 -23 354 -23 474 -1 204 39 349
124 359 212 1 11 4 -32 5 -94 3 -96 1 -119 -15 -145z m-1161 -12 c505 -88 504
-381 -1 -470 -106 -19 -339 -19 -442 0 -351 62 -486 237 -285 372 54 36 177
79 280 98 101 18 343 18 448 0z m1179 -159 c0 -101 -2 -117 -23 -147 -70 -104
-305 -179 -559 -179 l-118 0 0 98 0 99 163 11 c184 12 288 35 394 87 74 37
133 92 133 125 0 11 2 20 5 20 3 0 5 -51 5 -114z m-1963 -258 c102 -114 384
-179 676 -157 242 18 448 106 476 203 7 23 9 2 10 -85 1 -105 -1 -119 -22
-150 -72 -108 -305 -179 -582 -179 -274 1 -500 72 -572 179 -21 31 -23 45 -22
150 0 81 3 107 9 87 5 -15 17 -37 27 -48z m1963 -42 c0 -101 -2 -117 -23 -147
-70 -104 -305 -179 -559 -179 l-118 0 0 98 0 99 163 11 c184 12 288 35 394 87
74 37 133 92 133 125 0 11 2 20 5 20 3 0 5 -51 5 -114z m-1963 -258 c102 -114
384 -179 676 -157 242 18 448 106 476 203 7 23 9 2 10 -85 1 -105 -1 -119 -22
-150 -72 -108 -305 -179 -582 -179 -274 1 -500 72 -572 179 -21 31 -23 45 -22
150 0 81 3 107 9 87 5 -15 17 -37 27 -48z"/>
<path d="M650 3070 c-35 -35 -18 -90 28 -90 44 1 82 42 82 89 0 18 -6 21 -45
21 -32 0 -51 -6 -65 -20z"/>
<path d="M1696 3077 c-13 -9 -17 -23 -14 -52 3 -37 6 -40 35 -43 42 -4 83 34
83 78 0 29 -2 30 -43 30 -24 0 -51 -6 -61 -13z"/>
<path d="M2956 3218 c-33 -47 -23 -58 54 -58 60 0 70 2 70 18 0 36 -29 62 -70
62 -29 0 -43 -6 -54 -22z"/>
</g>
</svg>
